<?xml version="1.0" encoding="UTF-8"?>
<svg width="46px" height="46px" viewBox="0 0 46 46" version="1.1" xmlns="http://www.w3.org/2000/svg" xmlns:xlink="http://www.w3.org/1999/xlink">
    <title>ic_pdf@2x</title>
    <g id="最终设计稿" stroke="none" stroke-width="1" fill="none" fill-rule="evenodd">
        <g id="Group-73" transform="translate(3.000000, 0.000000)">
            <g id="编组-14">
                <g id="编组-74">
                    <path d="M30.54,0.000487507943 L39.879,9.14848751 L39.8796992,43.9562111 C39.8796992,45.0607806 38.9842687,45.9562111 37.8796992,45.9562111 L2,45.9562111 C0.8954305,45.9562111 1.3527075e-16,45.0607806 0,43.9562111 L0,2.00065556 C-1.3527075e-16,0.896086056 0.8954305,0.000655555558 2,0.000655555558 L30.54,0.000487507943 Z" id="形状结合" fill="#FF5A5A"></path>
                    <path d="M37.8984041,0.000576662922 C39.0029736,0.000576662922 39.8984041,0.896007163 39.8984041,2.00057666 L39.8982406,9.209 L30.4962406,0 L37.8984041,0.000576662922 Z" id="形状结合" fill="#FF9797" transform="translate(35.197322, 4.604500) scale(-1, -1) translate(-35.197322, -4.604500) "></path>
                    <path d="M8.54384962,30.2762111 L8.54384962,26.4402111 L11.0218496,26.4402111 C13.4578496,26.4402111 14.6758496,25.4042111 14.6758496,23.3462111 C14.6758496,21.3022111 13.4578496,20.2802111 11.0498496,20.2802111 L6.90584962,20.2802111 L6.90584962,30.2762111 L8.54384962,30.2762111 Z M10.9238496,25.0402111 L8.54384962,25.0402111 L8.54384962,21.6802111 L10.9238496,21.6802111 C11.6378496,21.6802111 12.1698496,21.8062111 12.5058496,22.0722111 C12.8418496,22.3242111 13.0238496,22.7442111 13.0238496,23.3462111 C13.0238496,23.9482111 12.8558496,24.3822111 12.5198496,24.6482111 C12.1838496,24.9002111 11.6518496,25.0402111 10.9238496,25.0402111 Z M19.7298496,30.2762111 C21.3538496,30.2762111 22.5718496,29.8282111 23.4118496,28.9322111 C24.2098496,28.0782111 24.6158496,26.8602111 24.6158496,25.2782111 C24.6158496,23.6822111 24.2098496,22.4642111 23.4118496,21.6242111 C22.5718496,20.7282111 21.3538496,20.2802111 19.7298496,20.2802111 L16.0758496,20.2802111 L16.0758496,30.2762111 L19.7298496,30.2762111 Z M19.4218496,28.8762111 L17.7138496,28.8762111 L17.7138496,21.6802111 L19.4218496,21.6802111 C20.6678496,21.6802111 21.5778496,21.9602111 22.1518496,22.5342111 C22.7118496,23.0942111 22.9918496,24.0182111 22.9918496,25.2782111 C22.9918496,26.5102111 22.7118496,27.4202111 22.1518496,28.0082111 C21.5778496,28.5822111 20.6678496,28.8762111 19.4218496,28.8762111 Z M27.7938496,30.2762111 L27.7938496,25.8522111 L32.6798496,25.8522111 L32.6798496,24.4522111 L27.7938496,24.4522111 L27.7938496,21.6802111 L32.9738496,21.6802111 L32.9738496,20.2802111 L26.1558496,20.2802111 L26.1558496,30.2762111 L27.7938496,30.2762111 Z" id="PDF" fill="#FEFEFE" fill-rule="nonzero"></path>
                </g>
            </g>
        </g>
    </g>
</svg>